Coordinates
version=1
nRows=14
nColumns=36
inDegrees=yes

Units are S.I. units (second, meters, Newtons, ...)
If the header above contains a line with 'inDegrees', this indicates whether rotational values are in degrees (yes) or radians (no).

endheader
time	pelvis_tilt	pelvis_list	pelvis_rotation	pelvis_tx	pelvis_ty	pelvis_tz	hip_flexion_r	hip_adduction_r	hip_rotation_r	knee_angle_r	knee_angle_r_beta	ankle_angle_r	subtalar_angle_r	mtp_angle_r	hip_flexion_l	hip_adduction_l	hip_rotation_l	knee_angle_l	knee_angle_l_beta	ankle_angle_l	subtalar_angle_l	mtp_angle_l	lumbar_extension	lumbar_bending	lumbar_rotation	arm_flex_r	arm_add_r	arm_rot_r	elbow_flex_r	pro_sup_r	arm_flex_l	arm_add_l	arm_rot_l	elbow_flex_l	pro_sup_l
      5.78750000	     -6.78428757	     -1.81882261	      6.24035668	      0.21123315	      0.78915848	     -0.05815876	     59.63866787	    -18.69301428	    -10.12574670	     88.83021101	      1.55037966	     27.96265363	    -21.46435462	     -7.49999987	     61.49460560	    -16.83716767	     -3.41318485	     89.53396702	      1.56266252	     18.47745186	    -31.48488145	     -7.49999987	    -60.83232424	     -1.85572633	      2.80644757	      6.57707614	    -16.88895735	     -1.61807244	     54.45410073	     78.27191251	     16.92341568	    -29.54542850	     15.71700544	    116.92826714	    102.71271549
      5.79166670	     -6.57163928	     -1.66879537	      6.20745182	      0.21291544	      0.79165981	     -0.05980433	     59.24907999	    -18.88297031	    -10.09897343	     88.63472842	      1.54696784	     27.87277797	    -21.43508712	     -7.49999987	     60.98716121	    -16.76523846	     -3.71035535	     89.36883640	      1.55978044	     18.54261956	    -31.51312197	     -7.49999987	    -60.92284822	     -1.81577632	      2.88695826	      6.26948828	    -16.99149246	     -2.23078639	     54.93164626	     78.13685434	     17.09756258	    -29.52265364	     16.15700647	    116.78854443	    102.97176451
      5.79583330	     -6.29748208	     -1.66425359	      6.35020390	      0.21292692	      0.79214298	     -0.05655418	     58.74546397	    -18.92291459	    -10.21100505	     88.47410818	      1.54416449	     27.77881458	    -21.41389570	     -7.49999987	     60.61488518	    -16.86117903	     -3.74930716	     89.24082258	      1.55754618	     18.33083031	    -31.40418343	     -7.49999987	    -60.81033964	     -1.75210666	      3.17522294	      5.78860489	    -17.23259285	     -2.26924707	     55.06505221	     76.35961289	     17.67448070	    -29.76734832	     17.49775518	    116.39689771	     95.89581858
      5.80000000	     -6.13555811	     -1.50841699	      6.33294324	      0.21190129	      0.79185497	     -0.05763350	     58.61507404	    -19.00740308	    -10.17612406	     88.48278225	      1.54431588	     27.75425290	    -21.60270468	     -7.49999987	     60.16863858	    -16.85183683	     -4.14501887	     89.08870750	      1.55489127	     18.70988086	    -31.14273617	     -7.49999987	    -60.78473390	     -1.77374142	      2.68203181	      5.80272035	    -17.26574655	     -2.12701795	     55.36555246	     78.53830208	     17.16914728	    -30.00739127	     16.33077797	    116.78200250	    103.04316708
      5.80416670	     -6.18088213	     -1.54220101	      6.40898146	      0.21000615	      0.79487551	     -0.05430907	     58.60071630	    -18.89523029	    -10.47693610	     88.27027441	      1.54060692	     27.73134133	    -21.61875942	     -7.49999987	     60.03622382	    -16.91945278	     -4.29323931	     88.67993399	      1.54775683	     18.67076014	    -31.04715314	     -7.49999987	    -60.51119171	     -1.80667477	      2.64758385	      5.58962627	    -17.30354734	     -2.13789730	     55.38662204	     78.53679688	     17.11813278	    -30.11898179	     16.33178116	    116.87515502	    103.04580413
      5.80833330	     -6.09134368	     -1.53224886	      6.40811527	      0.21434037	      0.79424652	     -0.05902569	     58.39223872	    -18.97623272	    -10.50581559	     88.29105467	      1.54096960	     27.72800023	    -21.65060007	     -7.49999987	     59.90329743	    -17.05349463	     -4.39616401	     88.69262397	      1.54797831	     18.61786141	    -30.97941816	     -7.49999987	    -60.26987723	     -1.76689777	      2.55372257	      5.41611537	    -17.34722299	     -2.16058068	     55.39765618	     78.53496612	     17.06393885	    -30.19385030	     16.35229895	    116.91566719	    103.04904017
      5.81250000	     -5.70786380	     -1.44223570	      6.43086279	      0.21511400	      0.79276325	     -0.05984567	     57.90090642	    -19.18133783	    -10.45984988	     88.37438170	      1.54242394	     27.82688589	    -21.52451991	     -7.49999987	     59.45073835	    -17.13797028	     -4.56477479	     88.86999518	      1.55107402	     18.87203984	    -30.55516998	     -7.49999987	    -60.34168033	     -1.73556653	      2.67254492	      4.74259743	    -17.44042315	     -2.68566970	     56.19613342	     78.61231751	     16.99604156	    -30.40268030	     16.74579293	    117.03621157	    103.24700380
      5.81666670	     -5.58492525	     -1.42194230	      6.43444203	      0.21574356	      0.79441379	     -0.05826287	     57.56268654	    -19.26988779	    -10.50103192	     88.27958031	      1.54076934	     27.97582785	    -21.36610272	     -7.49999987	     59.15224362	    -17.24462844	     -4.71049741	     88.73905295	      1.54878865	     18.97554568	    -30.18795446	     -7.49999987	    -60.02998123	     -1.66735229	      2.62416761	      4.48586388	    -17.44441820	     -2.75876700	     56.20026189	     79.09806024	     16.59281980	    -30.47564232	     16.73940892	    117.04309705	    102.91576459
      5.82083330	     -5.67557566	     -1.39837002	      6.41652391	      0.21276412	      0.79910223	     -0.05837499	     57.39968066	    -19.18082208	    -10.57203048	     87.80898067	      1.53255583	     27.99662932	    -21.24473840	     -7.49999987	     58.98530261	    -17.20644031	     -4.91745271	     88.35783699	      1.54213518	     18.88503697	    -30.00850314	     -7.49999987	    -59.72152556	     -1.67856718	      2.66320376	      4.33684582	    -17.42329327	     -2.78294735	     56.20840492	     79.08577979	     16.42973346	    -30.48061793	     16.78947350	    117.09978318	    102.92753475
      5.82500000	     -5.45088498	     -1.39669916	      6.41757228	      0.21425929	      0.80245491	     -0.05628194	     56.77646755	    -18.99614146	    -10.74835039	     87.24185356	      1.52265759	     28.01300028	    -21.17663361	     -7.49999987	     58.35335241	    -17.39984012	     -5.12435238	     87.78841190	      1.53219683	     18.85358239	    -29.67498943	     -7.49999987	    -59.67691430	     -1.65724573	      2.87055519	      4.09228582	    -17.43529582	     -3.04043687	     56.44326310	     77.90779239	     16.64168908	    -30.52051603	     17.13356699	    116.92898315	    101.19332131
      5.82916670	     -5.36170054	     -1.23798069	      6.40095554	      0.21392657	      0.80887143	     -0.05944482	     56.17308180	    -18.96072803	    -10.73892687	     86.37723873	      1.50756721	     27.73599174	    -21.15272028	     -7.49999987	     57.59283760	    -17.23146832	     -5.57459844	     86.94067969	      1.51740111	     18.89172692	    -29.43181675	     -7.49999987	    -59.71055649	     -1.68809861	      2.63145987	      4.13107167	    -17.38997112	     -3.18710917	     56.57203547	     77.95868755	     16.54912486	    -30.62835797	     17.11805491	    116.75507565	    101.38071229
      5.83333330	     -5.12818372	     -1.14876119	      6.42783572	      0.21510912	      0.80785027	     -0.05938550	     55.72998336	    -19.05128562	    -10.74754829	     86.10816181	      1.50287094	     27.36276653	    -21.44053797	     -7.49999987	     56.95967043	    -17.20068974	     -5.84670972	     86.46662018	      1.50912722	     19.26644350	    -29.27671080	     -7.49999987	    -59.72854997	     -1.69333744	      2.69162576	      4.04250984	    -17.45811447	     -3.36867341	     56.68685705	     77.28233153	     16.71050117	    -30.57914195	     17.48643999	    116.71584191	     99.95545757
      5.83750000	     -5.02152775	     -1.03143724	      6.42143965	      0.21700641	      0.80674494	     -0.06074098	     55.50785775	    -19.18546163	    -10.64571669	     86.04486565	      1.50176621	     27.24830590	    -21.63499329	     -7.49999987	     56.58742762	    -17.13768098	     -6.12326734	     86.35474349	      1.50717460	     19.73812092	    -29.14055197	     -7.49999987	    -59.59566578	     -1.64531917	      2.48864702	      3.90095413	    -17.35223125	     -3.88089709	     56.95293955	     78.66844944	     16.40619094	    -30.59923537	     17.23017483	    116.70346861	    103.04395780
      5.84166670	     -4.98077474	     -1.00638897	      6.41316583	      0.21501563	      0.81160811	     -0.05819491	     55.29416020	    -19.09974387	    -10.64450679	     85.72987586	      1.49626860	     27.01962766	    -21.69539151	     -7.49999987	     56.25469310	    -17.14629659	     -6.30543908	     85.89190338	      1.49909651	     19.84773196	    -29.04462403	     -7.49999987	    -59.42743855	     -1.72606621	      2.40858028	      3.85197177	    -17.36351250	     -3.91673992	     57.03787779	     78.69431801	     16.32257850	    -30.68577687	     17.38623424	    116.75468761	    103.04986527
